# xmcd
#
# Track frame offsets:
#	150
#	11236
#	28595
#	54187
#
# Disc length: 983 seconds
#
# Revision: 1
# Processed by: cddbd v1.5.2PL0 Copyright (c) Steve Scherf et al.
# Submitted via: audiograbber 1.83.01
#
DISCID=2703d504
DTITLE=JW Roy - What's Left Behind
DYEAR=1999
DGENRE=Americana
TTITLE0=What's Left Behind
TTITLE1=Benjamin (Live)
TTITLE2=Easier (Live)
TTITLE3=I Feel Like Going Home
EXTD=
EXTT0=
EXTT1=
EXTT2=
EXTT3=
PLAYORDER=
